PathFileType	4	(X/Y/Z)	Walk1_0-155.trc
DataRate	CameraRate	NumFrames	NumMarkers	Units	OrigDataRate	OrigDataStartFrame	OrigNumFrames
30	30	9	22	m	30	19	155
Frame#	Time	Hip			RHip			RKnee			RAnkle			RBigToe			RSmallToe			RHeel			LHip			LKnee			LAnkle			LBigToe			LSmallToe			LHeel			Neck			Head			Nose			RShoulder			RElbow			RWrist			LShoulder			LElbow			LWrist		
		X1	Y1	Z1	X2	Y2	Z2	X3	Y3	Z3	X4	Y4	Z4	X5	Y5	Z5	X6	Y6	Z6	X7	Y7	Z7	X8	Y8	Z8	X9	Y9	Z9	X10	Y10	Z10	X11	Y11	Z11	X12	Y12	Z12	X13	Y13	Z13	X14	Y14	Z14	X15	Y15	Z15	X16	Y16	Z16	X17	Y17	Z17	X18	Y18	Z18	X19	Y19	Z19	X20	Y20	Z20	X21	Y21	Z21	X22	Y22	Z22
20	0.6666666666666666	-2.511138675122003	0.8469883934460497	0.3258993188211824	-2.4803554787083644	0.8336591888880626	0.4103477307194505	-2.322833427113088	0.5209209136252874	0.4617020732280445	-2.48471546284034	0.1283010072263968	0.4952404630120356	-2.337616810859158	0.002638807400748817	0.5302945644166	-2.366014696596572	0.011134365584207875	0.590603271855747	-2.5289442131548405	0.05527289179874655	0.4918401999993271	-2.532826208263165	0.8121497634405235	0.22841727164442555	-2.4985528335126617	0.46762675931935294	0.23288140729903625	-2.5773926709736563	0.07021189234043315	0.2754728122861948	-2.3829774567608046	-0.022111646984327438	0.2738085733962454	-2.429871959206218	-0.029544699321170795	0.21592097180212388	-2.6266474628131973	-0.017203719166701416	0.29041850862573715	-2.4947917538010893	1.5178533420452611	0.275841809706758	-2.4385451395761915	1.768234749321825	0.22355374270827733	-2.364361791058086	1.6354101246084387	0.27889303329494947	-2.5380282402032304	1.4039519432114607	0.4573590569446094	-2.5161723647776872	1.0907466274890765	0.5530718192925703	-2.4279408271744263	0.8544444739961156	0.5684227186854186	-2.5073291877186805	1.393598285412313	0.12608289719733215	-2.510309755321371	1.0850143498664786	0.06926298686073812	-2.4661800810616294	0.8366192023514523	0.07563466848421399
21	0.7	-2.500869421394585	0.8479632146851952	0.32266521818583965	-2.4693548470744777	0.840631923517053	0.40681674949835456	-2.2960046967648156	0.5295986867150194	0.4548367760097752	-2.4494419326390813	0.139952183462885	0.4888520227816029	-2.31958280372206	-2.9028196746811513e-06	0.5133574541895041	-2.328401700655572	0.016656908263791244	0.5812125705758282	-2.4944635899857257	0.06720049442860235	0.48401539175397584	-2.529469874193249	0.8148015364398561	0.22106406944652976	-2.495170364517564	0.4661289413230602	0.23339800969507646	-2.577068067844993	0.0710737643019136	0.2727863051992614	-2.385605859671737	-0.022964322218048533	0.2755852702941003	-2.432416600646169	-0.029759268460387497	0.21788483530872693	-2.6271107197811485	-0.013512452812643318	0.28602234028374357	-2.4862415550587156	1.5189722221911044	0.27454795537373666	-2.4359819030988348	1.777383165663913	0.2863952493183258	-2.3546209072938824	1.635280379741075	0.2803531065034334	-2.529604755718423	1.4063070106139013	0.4600250676596259	-2.5147984647134356	1.0927860794563593	0.5516953657517364	-2.4288324248338866	0.8567906604685449	0.5685081298719407	-2.4974982046709395	1.3923728031112694	0.12176173926365684	-2.4969868945543574	1.087417079596213	0.06550562634216497	-2.45604853288094	0.8377861732511748	0.07416776892955489
22	0.7333333333333333	-2.487123639739147	0.849848495608379	0.32318583013363295	-2.453344958790696	0.8455944020048369	0.40801420233214536	-2.280698369602976	0.5340830823847236	0.4526063155357384	-2.414228941986337	0.14333561666388217	0.48067775556450265	-2.2758344129576993	0.019706905639869814	0.4993960114456259	-2.285717234775794	0.019779315740261105	0.5733731327380387	-2.4588981698120995	0.06969209406209277	0.4761828759865631	-2.521856047237946	0.8161158691484064	0.22128936364398966	-2.492441474027367	0.4659464725358264	0.2323160472793255	-2.576099385022985	0.07244677976853398	0.27114209357701974	-2.383064212660002	-0.021683038709957726	0.27024266003150893	-2.4327008365382277	-0.029643666234763052	0.21843520782337342	-2.624053788417763	-0.010815968149271016	0.28356560175532064	-2.474068697023962	1.5210054994660689	0.2728836689189165	-2.425398286830629	1.7774575357271618	0.29095461357693064	-2.312812041773749	1.6410459732396048	0.29598944054153525	-2.518438636306515	1.4089320718110998	0.46158471085735403	-2.50959658194118	1.0907369836168037	0.5506293700523999	-2.427039917308831	0.8524940368310853	0.5684517963538648	-2.4876580286091485	1.3923669465095194	0.11884943516540593	-2.4857421495195213	1.0869299111936068	0.06440061674921507	-2.445049820099349	0.8384064238780429	0.07228218197974803
23	0.7666666666666667	-2.471379892270651	0.8522944172960721	0.3240394521673123	-2.430265291938888	0.8470690486401226	0.41182664498265004	-2.2644636281566504	0.5325901723596205	0.4519396791102741	-2.3725699538051086	0.14118059745021014	0.4738727129126658	-2.2159372723754274	0.036046220260731676	0.48796489061935716	-2.2354647437203017	0.026291208372029078	0.5617999302735989	-2.4541751214614114	0.04615354256982634	0.4554801190248212	-2.511740853705248	0.8141515085436956	0.2259129976133825	-2.4841778544307895	0.46585805462182767	0.23289060926565316	-2.575447976036059	0.07512864105157532	0.2665000875647098	-2.384378388905107	-0.02170443503434652	0.2687687963121896	-2.4318153073493325	-0.02949550754165075	0.21616946837720982	-2.624263851567849	-0.011006313439750767	0.27844214296074776	-2.461476884176432	1.5209029691682296	0.2743669512198336	-2.4197075577996	1.7775690278250476	0.28556386302841097	-2.3064370553586504	1.6405785955814998	0.29649288846180993	-2.505382199790798	1.408413417483029	0.4600489973009819	-2.501787829089274	1.0917485096726978	0.5516417161711538	-2.426871897803808	0.8472328682981602	0.5700561930331318	-2.5283117760224187	1.4102503170863705	0.04752591479222517	-2.4737550823610777	1.0881936193503061	0.06170809464268231	-2.4300220226547062	0.8411362331146205	0.07178810745826858
24	0.8	-2.462043316065552	0.8495549880757111	0.323706480541846	-2.4214761935571576	0.8484659251276223	0.41269527482500135	-2.2540039753905594	0.5293905855622655	0.4495151389298457	-2.3307683395631553	0.1330158813082993	0.4677961668135014	-2.160442596904829	0.040456044671271896	0.4849843023578503	-2.181867913132942	0.02715821943256897	0.5617721846061936	-2.395030887928049	0.03883200075148247	0.4528436634699688	-2.5008325252821346	0.8172472529275809	0.22366185490263898	-2.4815416654126965	0.46044073185070966	0.23008949254234545	-2.5750965635542498	0.07367182147233334	0.26254042999439003	-2.381549975321805	-0.01980476817707644	0.26676932784912866	-2.4315409218301394	-0.03062360064004719	0.21434849786191792	-2.626684197524865	-0.013193449932810445	0.2735726297658961	-2.4489420866229734	1.5203082683278901	0.27433020567535815	-2.404945756790014	1.7776713982925618	0.28311805952419494	-2.2942871415371986	1.6405228555694977	0.29811752670069264	-2.4932238887271136	1.4092117085939355	0.4595864574100312	-2.495822675131567	1.091373064567603	0.5499197774734865	-2.426802054489973	0.8408473604254365	0.5718823645353264	-2.4638818554155923	1.3944134622197717	0.11660342711315606	-2.461047794059384	1.088561251309056	0.06388556187744138	-2.4141749939408133	0.8402544703113027	0.07350528774960739
25	0.8333333333333334	-2.4461620746710597	0.8531296656508593	0.3222575998517076	-2.398696193007875	0.8423911087207595	0.411136288224144	-2.263333360567471	0.5417791217631294	0.42652104921193046	-2.2819877989511084	0.1294407488328448	0.46652535626767544	-2.099654813778618	0.05131606750122518	0.48647032616163877	-2.120661173365639	0.040105326226369635	0.528465750759028	-2.335909346515583	0.04671617591752444	0.4575666318368733	-2.4864481391708373	0.8127224264400402	0.2223190178625399	-2.4835193585037634	0.4545371817978353	0.23242840618909721	-2.57667123658982	0.07344786238226247	0.262359118379086	-2.383702071410344	-0.019832435592539742	0.264517271798794	-2.428531327311664	-0.029036604340394467	0.20866263836831606	-2.6226082673159823	-0.01558710688755115	0.27340414208416586	-2.433979465618953	1.5205666966611946	0.2765159406524091	-2.357791271269325	1.7684743401812713	0.30243060959154505	-2.2741478567816156	1.6364769413119287	0.30031928141784703	-2.4804246008940973	1.4057190725917454	0.45869293566383723	-2.488923933073016	1.0873788431899223	0.5459712848401858	-2.4255935997787934	0.8417266245073024	0.57296226001378	-2.4480017939498078	1.3922590806628283	0.12169234594043742	-2.4452251759855566	1.0843632936585978	0.0669855988077716	-2.3959308058400657	0.8417184414395379	0.07994782931683432
26	0.8666666666666667	-2.4343811863159974	0.8526827637265515	0.32127522601462627	-2.3847787726728433	0.8393452534475639	0.4123940111828781	-2.2553512895871495	0.5366074744620573	0.41990897666480365	-2.25231925235265	0.13089435225326557	0.4657296952895388	-2.0355723881877594	0.04890455543652114	0.4922468921118323	-2.057368694438583	0.05463372951213676	0.5228703236434312	-2.2748487862042075	0.023613677748711422	0.4560139086975663	-2.4730153960499774	0.8119099777603302	0.22471435796246775	-2.477066592151591	0.44931850542762797	0.23484437224544372	-2.571304420165895	0.0692418601304107	0.2662807452876513	-2.3809765485635137	-0.028328644557814718	0.26859844205950595	-2.425008950046279	-0.03397404481058621	0.2111621802560757	-2.6154701759567187	-0.018201932531368273	0.2774931913142645	-2.418671204588781	1.5198498819336765	0.2765951551808653	-2.3388195962531597	1.7677482091798518	0.30457106375419146	-2.2685688530709607	1.6388803031611021	0.24970270979858353	-2.468914376554211	1.4033693274096006	0.4583682902570863	-2.478300832436709	1.0875826765674221	0.5463720593284934	-2.42326701970385	0.8396138578651361	0.574166094645943	-2.482761663318272	1.411456899298053	0.062419619493640895	-2.4292469778928174	1.0859419017685545	0.06713728361708542	-2.3760366329986717	0.8429994060007295	0.08188901942790061
27	0.9	-2.4235764627844296	0.8477730860225494	0.32053523731582634	-2.3754930130873806	0.8360035120966985	0.41132109223000435	-2.2476490903485313	0.5293574856049342	0.4143297356785878	-2.1900434752243685	0.11444576537809666	0.45446539301427696	-1.9763487802516089	0.06598192456310388	0.4819749191173459	-2.000339248885353	0.0641638838198573	0.534652919354329	-2.2188560762501535	0.02337324337945915	0.44547961661679014	-2.459107810648874	0.8103210438736269	0.22896598534332765	-2.4700596038585414	0.4493596676830327	0.23457056124432987	-2.5697766263139923	0.06150800757595936	0.27156936135744075	-2.377411876726401	-0.03674345060679852	0.278445511120534	-2.4183309414680276	-0.041898119366956595	0.22130054432987742	-2.6181862484445304	-0.028138509881960302	0.2835993837881016	-2.401556076942356	1.518786911411039	0.2784501604878609	-2.3604266570573444	1.773645019751781	0.2804901902433939	-2.2422367948634556	1.633039657908216	0.30878090114226014	-2.450811964343349	1.4041683133270422	0.4617928009857728	-2.4657822234665883	1.0875572756159362	0.5438625571289499	-2.421637652513684	0.8353954621559923	0.5735715001383779	-2.465015928920546	1.4116336202612003	0.06482451937565546	-2.4095687074087566	1.0854457072172876	0.06761355732002249	-2.353976637412788	0.8408423559227911	0.08473654117616472
28	0.9333333333333333	-2.4139330169178272	0.8428724955559902	0.3204861588532563	-2.3641458200225713	0.832597752881061	0.4154194141812054	-2.2352689859439514	0.5255754745012859	0.411134242455152	-2.1625693633366434	0.1359389967064724	0.4597755675149675	-1.925128785860334	0.08011492776502731	0.47564763096708895	-1.9488181529826674	0.07930925723575998	0.5249653683978446	-2.1730088385299426	0.022142186910351816	0.44121779247302867	-2.4498663493402892	0.8071637890769665	0.22958523300657094	-2.4625007024298724	0.4463263051702419	0.23802598937801414	-2.5750714986192507	0.0631437501628733	0.2759683357537671	-2.390230950186099	-0.03799399011687047	0.295193804864188	-2.4384784061283016	-0.04355096067500615	0.2472233145886218	-2.62601309776176	-0.02312027042981934	0.2844216754672911	-2.3847858840336253	1.5170885677714019	0.2786195334875076	-2.342308033861454	1.7730787640440955	0.28068519276436327	-2.224148343825429	1.6320782974843429	0.31308042367503924	-2.4322209111815236	1.4050555551064345	0.4616986443201222	-2.455295679865523	1.0891370542209138	0.5425181080492125	-2.421532660837171	0.8353704096539575	0.5767493104218706	-2.4484165928236563	1.4120579409639142	0.0690494620561324	-2.3901811214605573	1.0838934465016221	0.07003536944730267	-2.3282462218403115	0.8373823173079704	0.08840934338803308
